<svg width="18" height="19" viewBox="0 0 18 19" fill="none" xmlns="http://www.w3.org/2000/svg">
<path d="M5 16.975H12V6.975H10C9.53333 6.975 9.15 7.09167 8.85 7.325C8.55 7.55833 8.19167 7.9 7.775 8.35C7.44167 8.71667 7.05417 9.09583 6.6125 9.4875C6.17083 9.87917 5.63333 10.1667 5 10.35V16.975ZM3 18.975V10.325C2.13333 10.0917 1.41667 9.625 0.85 8.925C0.283333 8.225 0 7.40833 0 6.475C0 5.59167 0.254167 4.80833 0.7625 4.125C1.27083 3.44167 1.925 2.96667 2.725 2.7C3.10833 1.9 3.67917 1.25 4.4375 0.75C5.19583 0.25 6.05 0 7 0C7.58333 0 8.12917 0.1 8.6375 0.3C9.14583 0.5 9.60833 0.766667 10.025 1.1C10.1917 1.06667 10.35 1.0375 10.5 1.0125C10.65 0.9875 10.8167 0.975 11 0.975C12.1 0.975 13.0417 1.36667 13.825 2.15C14.6083 2.93333 15 3.875 15 4.975C15 5.34167 14.9542 5.69167 14.8625 6.025C14.7708 6.35833 14.6333 6.675 14.45 6.975H16C16.55 6.975 17.0208 7.17083 17.4125 7.5625C17.8042 7.95417 18 8.425 18 8.975V14.975C18 15.525 17.8042 15.9958 17.4125 16.3875C17.0208 16.7792 16.55 16.975 16 16.975H14V18.975H3ZM2 6.475C2 7.025 2.19583 7.49583 2.5875 7.8875C2.97917 8.27917 3.45 8.475 4 8.475C4.53333 8.475 4.9875 8.3 5.3625 7.95C5.7375 7.6 6.125 7.20833 6.525 6.775C6.94167 6.325 7.4125 5.9125 7.9375 5.5375C8.4625 5.1625 9.15 4.975 10 4.975H13C13 4.425 12.8042 3.95417 12.4125 3.5625C12.0208 3.17083 11.55 2.975 11 2.975C10.5833 2.975 10.2333 3.02917 9.95 3.1375C9.66667 3.24583 9.525 3.3 9.525 3.3L8.75 2.65C8.56667 2.5 8.32917 2.35417 8.0375 2.2125C7.74583 2.07083 7.4 2 7 2C6.46667 2 5.97917 2.14167 5.5375 2.425C5.09583 2.70833 4.75833 3.09167 4.525 3.575L4.175 4.325L3.375 4.6C2.95833 4.73333 2.625 4.97083 2.375 5.3125C2.125 5.65417 2 6.04167 2 6.475ZM14 14.975H16V8.975H14V14.975ZM5 16.975C5.63333 16.975 6.17083 16.975 6.6125 16.975C7.05417 16.975 7.44167 16.975 7.775 16.975C8.19167 16.975 8.55 16.975 8.85 16.975C9.15 16.975 9.53333 16.975 10 16.975H12H5Z" fill="white"/>
</svg>
